<svg xmlns="http://www.w3.org/2000/svg" aria-hidden="true" style="position:absolute;width:0;height:0;overflow:hidden;clip:rect(0,0,0,0);clip-path:inset(50%);">
  <symbol id="icon-hello" viewBox="0 0 24 24" fill="none" stroke="currentColor" stroke-width="1.8" stroke-linecap="round" stroke-linejoin="round"><path d="M8 6v11h6V6H8z"/><path d="M14 9q4 0 4 3 0 3-4 3"/></symbol>
  <symbol id="icon-about" viewBox="0 0 24 24" fill="none" stroke="currentColor" stroke-width="1.8" stroke-linecap="round" stroke-linejoin="round"><circle cx="12" cy="8" r="3"/><path d="M5 20c0-3.3 3.1-6 7-6s7 2.7 7 6"/></symbol>
  <symbol id="icon-contact" viewBox="0 0 24 24" fill="none" stroke="currentColor" stroke-width="1.8" stroke-linecap="round" stroke-linejoin="round"><path d="M4 6h16c1.1 0 2 .9 2 2v8c0 1.1-.9 2-2 2H4c-1.1 0-2-.9-2-2V8c0-1.1.9-2 2-2z"/><path d="M22 6l-10 7L2 6"/></symbol>
  <symbol id="icon-social" viewBox="0 0 24 24" fill="none" stroke="currentColor" stroke-width="1.8" stroke-linecap="round" stroke-linejoin="round"><circle cx="12" cy="12" r="2.5"/><circle cx="6" cy="8" r="2"/><circle cx="18" cy="8" r="2"/><path d="M8 10.5l3 2M16 10.5l-3 2"/></symbol>
  <symbol id="icon-interests" viewBox="0 0 24 24" fill="none" stroke="currentColor" stroke-width="1.8" stroke-linecap="round" stroke-linejoin="round"><path d="M12 21l-1.5-1.4C5.4 15.4 2 12.2 2 8.5 2 5.4 4.4 3 7.5 3c1.7 0 3.4.8 4.5 2.1C13.1 3.8 14.8 3 16.5 3 19.6 3 22 5.4 22 8.5c0 3.7-3.4 6.9-8.5 11.1L12 21z"/></symbol>
  <symbol id="icon-beliefs" viewBox="0 0 24 24" fill="none" stroke="currentColor" stroke-width="1.8" stroke-linecap="round" stroke-linejoin="round"><path d="M9 18h6M10 22h4M12 2v2M4.9 4.9l1.4 1.4M2 12h2M4.9 19.1l1.4-1.4M12 20v-2M19.1 19.1l-1.4-1.4M22 12h-2M19.1 4.9l-1.4 1.4"/><path d="M12 6a4 4 0 1 1 0 8 4 4 0 0 1 0-8z"/></symbol>
  <symbol id="icon-methodologies" viewBox="0 0 24 24" fill="none" stroke="currentColor" stroke-width="1.8" stroke-linecap="round" stroke-linejoin="round"><path d="M9 5H5c-.6 0-1 .4-1 1v12c0 .6.4 1 1 1h4M9 5V4c0-.6.4-1 1-1h4c.6 0 1 .4 1 1v1M9 5h6M9 9h6M9 13h4"/></symbol>
  <symbol id="icon-industries" viewBox="0 0 24 24" fill="none" stroke="currentColor" stroke-width="1.8" stroke-linecap="round" stroke-linejoin="round"><path d="M3 21h18M5 21V9l7-4 7 4v12M9 21v-6h6v6M9 13h6"/></symbol>
  <symbol id="icon-companies" viewBox="0 0 24 24" fill="none" stroke="currentColor" stroke-width="1.8" stroke-linecap="round" stroke-linejoin="round"><path d="M21 19V8a2 2 0 0 0-2-2H5a2 2 0 0 0-2 2v11M7 19v-4M11 19v-4M15 19v-4M19 19v-4"/><path d="M3 19h18"/></symbol>
  <symbol id="icon-press" viewBox="0 0 24 24" fill="none" stroke="currentColor" stroke-width="1.8" stroke-linecap="round" stroke-linejoin="round"><path d="M14 2H6a2 2 0 0 0-2 2v16a2 2 0 0 0 2 2h12a2 2 0 0 0 2-2V8z"/><path d="M14 2v6h6M16 13H8M16 17H8M10 9H8"/></symbol>
  <symbol id="icon-design" viewBox="0 0 24 24" fill="none" stroke="currentColor" stroke-width="1.8" stroke-linecap="round" stroke-linejoin="round"><path d="M12 3l2 4h4l-3 3 1 4-4-2-4 2 1-4-3-3h4L12 3z"/><path d="M5 21h14"/></symbol>
  <symbol id="icon-music" viewBox="0 0 24 24" fill="none" stroke="currentColor" stroke-width="1.8" stroke-linecap="round" stroke-linejoin="round"><path d="M14 4v10"/><path d="M14 4l5-1.2v9.7"/><ellipse cx="9" cy="17.8" rx="3.1" ry="2.5"/><ellipse cx="19" cy="15.8" rx="3.1" ry="2.5"/></symbol>
  <symbol id="icon-services" viewBox="0 0 24 24" fill="none" stroke="currentColor" stroke-width="1.8" stroke-linecap="round" stroke-linejoin="round"><rect x="4" y="4" width="16" height="16" rx="2"/><path d="M8 12l3 3 5-6"/></symbol>
  <symbol id="icon-apps" viewBox="0 0 24 24" fill="none" stroke="currentColor" stroke-width="1.6" stroke-linecap="round" stroke-linejoin="round"><rect x="4" y="4" width="3.5" height="3.5" rx="0.5"/><rect x="10.25" y="4" width="3.5" height="3.5" rx="0.5"/><rect x="16.5" y="4" width="3.5" height="3.5" rx="0.5"/><rect x="4" y="10.25" width="3.5" height="3.5" rx="0.5"/><rect x="10.25" y="10.25" width="3.5" height="3.5" rx="0.5"/><rect x="16.5" y="10.25" width="3.5" height="3.5" rx="0.5"/><rect x="4" y="16.5" width="3.5" height="3.5" rx="0.5"/><rect x="10.25" y="16.5" width="3.5" height="3.5" rx="0.5"/><rect x="16.5" y="16.5" width="3.5" height="3.5" rx="0.5"/></symbol>
  <symbol id="icon-phone" viewBox="0 0 24 24" fill="none" stroke="currentColor" stroke-width="1.8" stroke-linecap="round" stroke-linejoin="round"><rect x="7" y="3" width="10" height="18" rx="2"/><path d="M10 19h4"/></symbol>
  <symbol id="icon-speaking" viewBox="0 0 24 24" fill="none" stroke="currentColor" stroke-width="1.8" stroke-linecap="round" stroke-linejoin="round"><path d="M12 2a4 4 0 0 1 4 4v6a4 4 0 0 1-8 0V6a4 4 0 0 1 4-4z"/><path d="M19 10v2a7 7 0 0 1-14 0v-2M12 19v3M9 22h6"/></symbol>
  <symbol id="icon-interview" viewBox="0 0 24 24" fill="none" stroke="currentColor" stroke-width="1.8" stroke-linecap="round" stroke-linejoin="round"><path d="M4 8h10v8H4z"/><path d="M17 12a3 3 0 1 1-6 0 3 3 0 0 1 6 0"/><path d="M9 4h6v4H9z"/></symbol>
  <symbol id="icon-ticket" viewBox="0 0 24 24" fill="none" stroke="currentColor" stroke-width="1.8" stroke-linecap="round" stroke-linejoin="round"><path d="M3 8V6a2 2 0 0 1 2-2h14a2 2 0 0 1 2 2v2M3 8v8a2 2 0 0 0 2 2h14a2 2 0 0 0 2-2V8M3 8h18M8 12h0M12 12h0M16 12h0"/></symbol>
  <symbol id="icon-map" viewBox="0 0 24 24" fill="none" stroke="currentColor" stroke-width="1.8" stroke-linecap="round" stroke-linejoin="round"><path d="M8 2v20M16 2v20M2 8h6v8H2zM16 8h6v8h-6zM8 8l4-4 4 4v8l-4 4-4-4V8z"/></symbol>
  <symbol id="icon-sun" viewBox="0 0 24 24" fill="none" stroke="currentColor" stroke-width="1.8" stroke-linecap="round" stroke-linejoin="round"><circle cx="12" cy="12" r="4"/><path d="M12 2v2M12 20v2M4.2 4.2l1.4 1.4M18.4 18.4l1.4 1.4M2 12h2M20 12h2M4.2 19.8l1.4-1.4M18.4 5.6l1.4-1.4"/></symbol>
  <symbol id="icon-globe" viewBox="0 0 24 24" fill="none" stroke="currentColor" stroke-width="1.8" stroke-linecap="round" stroke-linejoin="round"><circle cx="12" cy="12" r="10"/><path d="M2 12h20"/><path d="M12 2a15.3 15.3 0 0 1 4 10 15.3 15.3 0 0 1-4 10 15.3 15.3 0 0 1-4-10 15.3 15.3 0 0 1 4-10z"/></symbol>
  <symbol id="icon-lightbulb" viewBox="0 0 24 24" fill="none" stroke="currentColor" stroke-width="1.8" stroke-linecap="round" stroke-linejoin="round"><path d="M9 18h6M10 22h4M12 2a6 6 0 0 1 4 5.2c0 2.6-1.4 4.4-2 6h-4c-.6-1.6-2-3.4-2-6a6 6 0 0 1 4-5.2z"/></symbol>
  <symbol id="icon-pencil" viewBox="0 0 24 24" fill="none" stroke="currentColor" stroke-width="1.8" stroke-linecap="round" stroke-linejoin="round"><path d="M17 3l4 4-10 10H7v-4L17 3z"/><path d="M7 13v4h4"/></symbol>
  <symbol id="icon-featured" viewBox="0 0 24 24" fill="none" stroke="currentColor" stroke-width="1.8" stroke-linecap="round" stroke-linejoin="round"><path d="M12 2l3 7 7 1-5 5 1 7-6-3.5L6 22l1-7-5-5 7-1 3-7z"/></symbol>
  <symbol id="icon-vinyl" viewBox="0 0 24 24" fill="none" stroke="currentColor" stroke-width="1.8" stroke-linecap="round" stroke-linejoin="round"><circle cx="12" cy="12" r="10"/><circle cx="12" cy="12" r="3"/><path d="M12 5v2M12 17v2M5 12h2M17 12h2"/></symbol>
</svg>
